<?xml version="1.0" encoding="utf-8"?>
<!-- Generator: Adobe Illustrator 24.3.0, SVG Export Plug-In . SVG Version: 6.00 Build 0)  -->
<svg version="1.1" id="Capa_1" xmlns="http://www.w3.org/2000/svg" xmlns:xlink="http://www.w3.org/1999/xlink" x="0px" y="0px"
	 viewBox="0 0 1280 1216" style="enable-background:new 0 0 1280 1216;" xml:space="preserve">
<style type="text/css">
	.st0{fill:#FFFFFF;}
</style>
<g transform="translate(0.000000,1216.000000) scale(0.100000,-0.100000)">
	<path class="st0" d="M3980,12154c-1007-73-1932-486-2659-1189C416,10090-73,8827,10,7575c86-1287,743-2448,1785-3153
		c362-246,755-427,1172-542c631-173,1265-193,1923-60c52,10,145,28,205,40c517,99,1026,312,1495,625l142,95l32-28
		c18-15,809-745,1757-1622s2013-1863,2367-2190s658-602,675-611c18-9,54-20,80-23c32-5,64-19,93-41c52-40,128-65,194-65
		c163,0,389,126,569,316c254,269,359,560,267,742c-27,53-46,71-3611,3366c-660,610-1227,1134-1260,1165s-73,65-88,76l-28,20l81,135
		c538,890,734,1966,544,2980c-111,595-362,1176-721,1668c-490,671-1212,1191-1988,1430c-472,146-707,200-1025,237
		C4541,12150,4098,12162,3980,12154z"/>
</g>
</svg>
